<?xml version="1.0" encoding="UTF-8"?>
<svg id="svg5218" width="510" height="662.5" version="1.1" viewBox="0 0 510 662.5" xml:space="preserve" xmlns="http://www.w3.org/2000/svg" xmlns:cc="http://creativecommons.org/ns#" xmlns:dc="http://purl.org/dc/elements/1.1/" xmlns:rdf="http://www.w3.org/1999/02/22-rdf-syntax-ns#"><metadata id="metadata5224"><rdf:RDF><cc:Work rdf:about=""><dc:format>image/svg+xml</dc:format><dc:type rdf:resource="http://purl.org/dc/dcmitype/StillImage"/><dc:title/></cc:Work></rdf:RDF></metadata><defs id="defs5222"><marker id="TriangleInM" overflow="visible" orient="auto"><path id="path1121" transform="scale(-.4)" d="m5.77 0-8.65 5v-10l8.65 5z" fill-rule="evenodd" stroke="#000" stroke-width="1pt"/></marker></defs><g id="g5226" transform="matrix(1.25,0,0,-1.25,0,662.5)"><g id="g5228" transform="scale(.1)">
<path id="path5232" d="m787.58 5147.2c-303.6 0-549.57-127.23-549.57-284.42 0-157.18 245.97-284.37 549.57-284.37 302.42 0 548.4 127.19 548.4 284.37 0 157.19-245.98 284.42-548.4 284.42" fill="none" stroke="#010101" stroke-linecap="round" stroke-linejoin="round" stroke-miterlimit="10" stroke-width="20"/><text id="text5234" transform="scale(1,-1)" x="690.39099" y="-4998.8203" fill="#000000" font-family="Courier" font-size="120px" font-weight="bold" stroke-width="10" style="line-height:0%"><tspan id="tspan5236" x="690.39099" y="-4998.8203" font-size="159.6px" stroke-width="10" style="line-height:1.25">Eq</tspan></text>
<text id="text5238" transform="scale(1,-1)" x="767.25024" y="-4835.6172" fill="#000000" font-family="sans-serif" font-size="117.33px" stroke-width="10" text-align="center" text-anchor="middle" style="font-variant-caps:normal;font-variant-east-asian:normal;font-variant-ligatures:normal;font-variant-numeric:normal;line-height:0%"><tspan id="tspan5240" x="767.25024" y="-4835.6172" text-align="center" style="font-variant-caps:normal;font-variant-east-asian:normal;font-variant-ligatures:normal;font-variant-numeric:normal;line-height:1.25">All except</tspan><tspan id="tspan138" x="767.25024" y="-4688.9512" text-align="center" style="font-variant-caps:normal;font-variant-east-asian:normal;font-variant-ligatures:normal;font-variant-numeric:normal;line-height:1.25">IO, (-&gt;)</tspan></text>
<path id="path5242" d="m813.98 4428c-318 0-575.97-130.78-575.97-290.39 0-160.78 257.97-290.39 575.97-290.39 318.01 0 576.02 129.61 576.02 290.39 0 159.61-258.01 290.39-576.02 290.39" fill="none" stroke="#010101" stroke-linecap="round" stroke-linejoin="round" stroke-miterlimit="10" stroke-width="20"/><path id="path5244" d="m2117.2 4425.6c-319.18 0-578.4-129.61-578.4-289.22 0-158.4 259.22-287.97 578.4-287.97 320.39 0 579.61 129.57 579.61 287.97 0 159.61-259.22 289.22-579.61 289.22" fill="none" stroke="#010101" stroke-linecap="round" stroke-linejoin="round" stroke-miterlimit="10" stroke-width="20"/><text id="text5246" transform="scale(1,-1)" x="1973.1899" y="-4263.2202" fill="#000000" font-family="Courier" font-size="120px" font-weight="bold" stroke-width="10" style="line-height:0%"><tspan id="tspan5248" x="1973.1899" y="-4263.2202" font-size="159.6px" stroke-width="10" style="line-height:1.25">Num</tspan></text>
<text id="text5250" transform="scale(1,-1)" x="2105.9778" y="-4101.2202" fill="#000000" font-family="sans-serif" font-size="117.33px" stroke-width="10" text-align="center" text-anchor="middle" style="font-variant-caps:normal;font-variant-east-asian:normal;font-variant-ligatures:normal;font-variant-numeric:normal;line-height:0%"><tspan id="tspan5252" x="2105.9778" y="-4101.2202" text-align="center" style="font-variant-caps:normal;font-variant-east-asian:normal;font-variant-ligatures:normal;font-variant-numeric:normal;line-height:1.25">Int, Integer, </tspan><tspan id="tspan5254" x="2105.9778" y="-3954.554" text-align="center" style="font-variant-caps:normal;font-variant-east-asian:normal;font-variant-ligatures:normal;font-variant-numeric:normal;line-height:1.25">Float, Double</tspan></text>
<path id="path5268" d="m2072.8 3536.4c-303.59 0-549.57-122.39-549.57-273.6 0-150 245.98-272.38 549.57-272.38 304.81 0 550.82 122.38 550.82 272.38 0 151.21-246.01 273.6-550.82 273.6" fill="none" stroke="#010101" stroke-linecap="round" stroke-linejoin="round" stroke-miterlimit="10" stroke-width="20"/><text id="text5270" transform="scale(1,-1)" x="1880.7899" y="-3389.6201" fill="#000000" font-family="Courier" font-size="120px" font-weight="bold" stroke-width="10" style="line-height:0%"><tspan id="tspan5272" x="1880.7899" y="-3389.6201" font-size="159.6px" stroke-width="10" style="line-height:1.25">Real</tspan></text>
<text id="text5274" transform="scale(1,-1)" x="2069.0452" y="-3259.6204" fill="#000000" font-family="sans-serif" font-size="117.33px" stroke-width="10" text-align="center" text-anchor="middle" style="font-variant-caps:normal;font-variant-east-asian:normal;font-variant-ligatures:normal;font-variant-numeric:normal;line-height:0%"><tspan id="tspan5276" x="2069.0452" y="-3259.6204" text-align="center" style="font-variant-caps:normal;font-variant-east-asian:normal;font-variant-ligatures:normal;font-variant-numeric:normal;line-height:1.25">Int, Integer, </tspan><tspan id="tspan5278" x="2069.0452" y="-3112.9541" text-align="center" style="font-variant-caps:normal;font-variant-east-asian:normal;font-variant-ligatures:normal;font-variant-numeric:normal;line-height:1.25">Float, Double</tspan></text>
<path id="path5280" d="m3280 3530.4c-322.81 0-584.41-120-584.41-267.62 0-147.58 261.6-266.4 584.41-266.4 322.77 0 584.38 118.82 584.38 266.4 0 147.62-261.61 267.62-584.38 267.62" fill="none" stroke="#010101" stroke-linecap="round" stroke-linejoin="round" stroke-miterlimit="10" stroke-width="20"/><text id="text5282" transform="scale(1,-1)" x="2814.79" y="-3334.8206" fill="#000000" font-family="Courier" font-size="120px" font-weight="bold" stroke-width="10" style="line-height:0%"><tspan id="tspan5284" x="2814.79" y="-3334.8206" font-size="159.6px" stroke-width="10" style="line-height:1.25">Fractional</tspan></text>
<text id="text5286" transform="scale(1,-1)" x="3277.5688" y="-3187.6177" fill="#000000" font-family="sans-serif" font-size="117.33px" stroke-width="10" text-align="center" text-anchor="middle" style="font-variant-caps:normal;font-variant-east-asian:normal;font-variant-ligatures:normal;font-variant-numeric:normal;line-height:0%"><tspan id="tspan5288" x="3277.5688" y="-3187.6177" text-align="center" style="font-variant-caps:normal;font-variant-east-asian:normal;font-variant-ligatures:normal;font-variant-numeric:normal;line-height:1.25">Float, Double,</tspan><tspan id="tspan5290" x="3277.5688" y="-3040.9514" text-align="center" style="font-variant-caps:normal;font-variant-east-asian:normal;font-variant-ligatures:normal;font-variant-numeric:normal;line-height:1.25">Complex</tspan></text>
<path id="path5292" d="m799.61 3630c-357.62 0-646.84-164.37-646.84-365.98 0-202.81 289.22-366.01 646.84-366.01 356.37 0 645.59 163.2 645.59 366.01 0 201.61-289.22 365.98-645.59 365.98" fill="none" stroke="#010101" stroke-linecap="round" stroke-linejoin="round" stroke-miterlimit="10" stroke-width="20"/><text id="text5294" transform="scale(1,-1)" x="606.39099" y="-3478.8203" fill="#000000" font-family="Courier" font-size="120px" font-weight="bold" stroke-width="10" style="line-height:0%"><tspan id="tspan5296" x="606.39099" y="-3478.8203" font-size="159.6px" stroke-width="10" style="line-height:1.25">Enum</tspan></text>
<text id="text5298" transform="scale(1,-1)" x="809.45544" y="-3331.6172" fill="#000000" font-family="sans-serif" font-size="117.33px" stroke-width="10" text-align="center" text-anchor="middle" style="font-variant-caps:normal;font-variant-east-asian:normal;font-variant-ligatures:normal;font-variant-numeric:normal;line-height:0%"><tspan id="tspan5300" x="809.45544" y="-3331.6172" text-align="center" style="font-variant-caps:normal;font-variant-east-asian:normal;font-variant-ligatures:normal;font-variant-numeric:normal;line-height:1.25">(), Bool, Char,</tspan><tspan id="tspan5302" x="809.45544" y="-3184.9509" text-align="center" style="font-variant-caps:normal;font-variant-east-asian:normal;font-variant-ligatures:normal;font-variant-numeric:normal;line-height:1.25">Ordering, Int, Integer,</tspan><tspan id="tspan5304" x="809.45544" y="-3038.2847" text-align="center" style="font-variant-caps:normal;font-variant-east-asian:normal;font-variant-ligatures:normal;font-variant-numeric:normal;line-height:1.25">Float, Double</tspan></text>
<path id="path5306" d="m2024.8 2678.4c-265.19 0-480-118.83-480-265.24 0-145.19 214.81-263.98 480-263.98 265.2 0 478.79 118.79 478.79 263.98 0 146.41-213.59 265.24-478.79 265.24" fill="none" stroke="#010101" stroke-linecap="round" stroke-linejoin="round" stroke-miterlimit="10" stroke-width="20"/><text id="text5308" transform="scale(1,-1)" x="1640.7899" y="-2437.22" fill="#000000" font-family="Courier" font-size="120px" font-weight="bold" stroke-width="10" style="line-height:0%"><tspan id="tspan5310" x="1640.7899" y="-2437.22" font-size="159.6px" stroke-width="10" style="line-height:1.25">RealFrac</tspan></text>
<text id="text5312" transform="scale(1,-1)" x="1629.5906" y="-2290.0212" fill="#000000" font-family="sans-serif" font-size="117.33px" stroke-width="10" style="font-variant-caps:normal;font-variant-east-asian:normal;font-variant-ligatures:normal;font-variant-numeric:normal;line-height:0%"><tspan id="tspan5314" x="1629.5906" y="-2290.0212" font-family="sans-serif" font-size="117.33px" stroke-width="10" style="font-variant-caps:normal;font-variant-east-asian:normal;font-variant-ligatures:normal;font-variant-numeric:normal;line-height:1.25">Float, Double</tspan></text>
<path id="path5316" d="m3131.2 2678.4c-292.77 0-530.39-118.83-530.39-265.24 0-145.19 237.62-263.98 530.39-263.98 292.81 0 530.43 118.79 530.43 263.98 0 146.41-237.62 265.24-530.43 265.24" fill="none" stroke="#010101" stroke-linecap="round" stroke-linejoin="round" stroke-miterlimit="10" stroke-width="20"/><path id="path5318" d="m923.2 2630.4c-260.43 0-471.6-118.83-471.6-265.2 0-145.23 211.17-264.02 471.6-264.02 260.39 0 471.6 118.79 471.6 264.02 0 146.37-211.21 265.2-471.6 265.2" fill="none" stroke="#010101" stroke-linecap="round" stroke-linejoin="round" stroke-miterlimit="10" stroke-width="20"/><text id="text5320" transform="scale(1,-1)" x="539.19104" y="-2389.22" fill="#000000" font-family="Courier" font-size="120px" font-weight="bold" stroke-width="10" style="line-height:0%"><tspan id="tspan5322" x="539.19104" y="-2389.22" font-size="159.6px" stroke-width="10" style="line-height:1.25">Integral</tspan></text>
<text id="text5324" transform="scale(1,-1)" x="591.58911" y="-2226.021" fill="#000000" font-family="sans-serif" font-size="117.33px" stroke-width="10" style="font-variant-caps:normal;font-variant-east-asian:normal;font-variant-ligatures:normal;font-variant-numeric:normal;line-height:0%"><tspan id="tspan5326" x="591.58911" y="-2226.021" font-family="sans-serif" font-size="117.33px" stroke-width="10" style="font-variant-caps:normal;font-variant-east-asian:normal;font-variant-ligatures:normal;font-variant-numeric:normal;line-height:1.25">Int, Integer</tspan></text>
<path id="path5328" d="m2431.6 1926.4c-306.01 0-554.41-106.8-554.41-240 0-132 248.4-240 554.41-240 305.98 0 553.2 108 553.2 240 0 133.2-247.22 240-553.2 240" fill="none" stroke="#010101" stroke-linecap="round" stroke-linejoin="round" stroke-miterlimit="10" stroke-width="20"/><text id="text5330" transform="scale(1,-1)" x="1999.59" y="-1709.2201" fill="#000000" font-family="Courier" font-size="120px" font-weight="bold" stroke-width="10" style="line-height:0%"><tspan id="tspan5332" x="1999.59" y="-1709.2201" font-size="159.6px" stroke-width="10" style="line-height:1.25">RealFloat</tspan></text>
<text id="text5334" transform="scale(1,-1)" x="2068.3909" y="-1546.021" fill="#000000" font-family="sans-serif" font-size="117.33px" stroke-width="10" style="font-variant-caps:normal;font-variant-east-asian:normal;font-variant-ligatures:normal;font-variant-numeric:normal;line-height:0%"><tspan id="tspan5336" x="2068.3909" y="-1546.021" font-family="sans-serif" font-size="117.33px" stroke-width="10" style="font-variant-caps:normal;font-variant-east-asian:normal;font-variant-ligatures:normal;font-variant-numeric:normal;line-height:1.25">Float, Double</tspan></text>
<path id="path5350" d="m3404.6 4469.5c-304 0-551.3-156.42-551.3-350.69 0-193.01 247.3-349.43 551.3-349.43 305.28 0 552.52 156.42 552.52 349.43 0 194.27-247.25 350.69-552.52 350.69" fill="none" stroke="#010101" stroke-linecap="round" stroke-linejoin="round" stroke-miterlimit="10" stroke-width="21.025"/><text id="text5352" transform="scale(1,-1)" x="3041.1899" y="-4263.2202" fill="#000000" font-family="Courier" font-size="120px" font-weight="bold" stroke-width="10" style="line-height:0%"><tspan id="tspan5354" x="3041.1899" y="-4263.2202" font-size="159.6px" stroke-width="10" style="line-height:1.25">Bounded</tspan></text>
<text id="text5356" transform="scale(1,-1)" x="3421.9263" y="-4117.2202" fill="#000000" font-family="sans-serif" font-size="117.33px" stroke-width="10" text-align="center" text-anchor="middle" style="font-variant-caps:normal;font-variant-east-asian:normal;font-variant-ligatures:normal;font-variant-numeric:normal;line-height:0%"><tspan id="tspan5358" x="3421.9263" y="-4117.2202" text-align="center" style="font-variant-caps:normal;font-variant-east-asian:normal;font-variant-ligatures:normal;font-variant-numeric:normal;line-height:1.25">Int, Char, Bool, ()</tspan><tspan id="tspan5360" x="3421.9263" y="-3970.554" text-align="center" style="font-variant-caps:normal;font-variant-east-asian:normal;font-variant-ligatures:normal;font-variant-numeric:normal;line-height:1.25">Ordering, </tspan><tspan id="tspan144" x="3421.9263" y="-3823.8877" text-align="center" style="font-variant-caps:normal;font-variant-east-asian:normal;font-variant-ligatures:normal;font-variant-numeric:normal;line-height:1.25">tuples</tspan></text>
<path id="path5414" d="m818.36 4567.8 33.4-107.14" fill="none" stroke="#000" stroke-width="16"/><path id="path5416" d="m862.73 4425.4 14.07 62.38-61.1-19.06 47.03-43.32" fill-rule="evenodd" stroke="#000" stroke-width="4.7619"/><path id="path5418" d="m2049.3 2139.7 200.27-197.58" fill="none" stroke="#000" stroke-width="16"/><path id="path5420" d="m2275.9 1916.2-16.95 61.68-44.96-45.58 61.91-16.1" fill-rule="evenodd" stroke="#000" stroke-width="11.39"/><path id="path5422" d="m2092 3848.1-62.65-274.5" fill="none" stroke="#000" stroke-width="16"/><path id="path5424" d="m2021.2 3537.6 43.52 46.87-62.39 14.22 18.87-61.09" fill-rule="evenodd" stroke="#000" stroke-width="3.5606"/><path id="path5426" d="m2245 3865.6 1065-297.58" fill="none" stroke="#000" stroke-width="16"/><path id="path5428" d="m3345.5 3558.1-44.69 45.7-17.23-61.6 61.92 15.9" fill-rule="evenodd" stroke="#000" stroke-width="15.41"/><path id="path5430" d="m3134.4 2131.8-513-189.14" fill="none" stroke="#000" stroke-width="16"/><path id="path5432" d="m2586.8 1929.9 63-10.86-22.1 60.04-40.9-49.18" fill-rule="evenodd" stroke="#000" stroke-width="15.012"/><path id="path5434" d="m1958.2 2987.4-951.91-331.48" fill="none" stroke="#000" stroke-width="16"/><path id="path5436" d="m971.37 2643.8 62.81-12.03-21.06 60.43-41.75-48.4" fill-rule="evenodd" stroke="#000" stroke-width="15.11"/><path id="path5438" d="m2092 3000.1-62.65-274.49" fill="none" stroke="#000" stroke-width="16"/><path id="path5440" d="m2021.2 2689.6 43.52 46.88-62.39 14.21 18.87-61.09" fill-rule="evenodd" stroke="#000" stroke-width="3.5606"/><path id="path5442" d="m3308 2981.8-62.66-241.6" fill="none" stroke="#000" stroke-width="16"/><path id="path5444" d="m3236.1 2704.4 44.85 45.55-61.96 16.1 17.11-61.65" fill-rule="evenodd" stroke="#000" stroke-width="4.0168"/><path id="path5446" d="m817.19 2901.8 62.69-241.6" fill="none" stroke="#000" stroke-width="16"/><path id="path5448" d="m889.14 2624.4 17.07 61.65-61.95-16.1 44.88-45.55" fill-rule="evenodd" stroke="#000" stroke-width="4.0168"/>
<path id="path5458" d="m969.3 3868.2 818.9-345.03" fill="none" stroke="#000" stroke-width="16"/><path id="path5460" d="m1822.2 3508.8-38.6 50.98-24.84-58.99 63.44 8.01" fill-rule="evenodd" stroke="#000" stroke-width="14.745"/>
<text id="text5470" transform="scale(1,-1)" x="2761.99" y="-2517.2205" fill="#000000" font-family="Courier" font-size="120px" font-weight="bold" stroke-width="10" style="line-height:0%"><tspan id="tspan5472" x="2761.99" y="-2517.2205" font-size="159.6px" stroke-width="10" style="line-height:1.25">Floating</tspan></text>
<text id="text5474" transform="scale(1,-1)" x="3156.4854" y="-2371.6174" fill="#000000" font-family="sans-serif" font-size="117.33px" stroke-width="10" text-align="center" text-anchor="middle" style="font-variant-caps:normal;font-variant-east-asian:normal;font-variant-ligatures:normal;font-variant-numeric:normal;line-height:0%"><tspan id="tspan5476" x="3156.4854" y="-2371.6174" text-align="center" style="font-variant-caps:normal;font-variant-east-asian:normal;font-variant-ligatures:normal;font-variant-numeric:normal;line-height:1.25">Float, Double,</tspan><tspan id="tspan5478" x="3156.4854" y="-2224.9512" text-align="center" style="font-variant-caps:normal;font-variant-east-asian:normal;font-variant-ligatures:normal;font-variant-numeric:normal;line-height:1.25">Complex</tspan></text>
<text id="text5480" transform="scale(1,-1)" x="668.78894" y="-4280.4204" fill="#000000" font-family="Courier" font-size="120px" font-weight="bold" stroke-width="10" style="line-height:0%"><tspan id="tspan5482" x="668.78894" y="-4280.4204" font-size="159.6px" stroke-width="10" style="line-height:1.25">Ord</tspan></text>
<text id="text5484" transform="scale(1,-1)" x="803.32898" y="-4149.2202" fill="#000000" font-family="sans-serif" font-size="117.33px" stroke-width="10" text-align="center" text-anchor="middle" style="font-variant-caps:normal;font-variant-east-asian:normal;font-variant-ligatures:normal;font-variant-numeric:normal;line-height:0%"><tspan id="tspan5486" x="803.32898" y="-4149.2202" text-align="center" style="font-variant-caps:normal;font-variant-east-asian:normal;font-variant-ligatures:normal;font-variant-numeric:normal;line-height:1.25">All except </tspan><tspan id="tspan5488" x="803.32898" y="-4002.5542" text-align="center" style="font-variant-caps:normal;font-variant-east-asian:normal;font-variant-ligatures:normal;font-variant-numeric:normal;line-height:1.25">(-&gt;), IO, IOError</tspan></text>
<text id="text146" transform="matrix(10 0 0 10 -1836 -2385.2)" fill="#000000" font-family="sans-serif" font-size="32px" style="line-height:1.25;shape-inside:url(#rect148);white-space:pre" xml:space="preserve"/><path id="path160" d="m2260.3 2685.7 869.82 310.44z" fill="none" marker-start="url(#TriangleInM)" stroke="#000" stroke-width="17.593"/></g></g></svg>
